<mxfile host="app.diagrams.net" modified="2024-02-19T05:58:59.759Z" agent="Mozilla/5.0 (Windows NT 10.0; Win64; x64) AppleWebKit/537.36 (KHTML, like Gecko) Chrome/121.0.0.0 Safari/537.36" etag="rrNhKKGtQWqh5fqXdd70" version="23.1.5" type="device">
  <diagram id="azLxx8qSIVp6hIlhMGMt" name="Ã¶dev 1">
    <mxGraphModel dx="840" dy="482" grid="1" gridSize="10" guides="1" tooltips="1" connect="1" arrows="1" fold="1" page="1" pageScale="1" pageWidth="827" pageHeight="1169" math="0" shadow="0">
      <root>
        <mxCell id="0" />
        <mxCell id="1" parent="0" />
        <mxCell id="a3N-TRlWXzalUJBeH1p4-15" value="Library" style="swimlane;fontStyle=1;align=center;verticalAlign=top;childLayout=stackLayout;horizontal=1;startSize=26;horizontalStack=0;resizeParent=1;resizeParentMax=0;resizeLast=0;collapsible=1;marginBottom=0;rounded=0;shadow=0;glass=0;sketch=0;fillColor=#dae8fc;strokeColor=#6c8ebf;" parent="1" vertex="1">
          <mxGeometry x="570" y="10" width="240" height="190" as="geometry" />
        </mxCell>
        <mxCell id="a3N-TRlWXzalUJBeH1p4-16" value="&#xa;Name&#xa;RegistrationDate&#xa;Id" style="text;strokeColor=#d79b00;fillColor=#ffe6cc;align=center;verticalAlign=top;spacingLeft=4;spacingRight=4;overflow=hidden;rotatable=0;points=[[0,0.5],[1,0.5]];portConstraint=eastwest;rounded=0;shadow=0;glass=0;sketch=0;fontStyle=1" parent="a3N-TRlWXzalUJBeH1p4-15" vertex="1">
          <mxGeometry y="26" width="240" height="64" as="geometry" />
        </mxCell>
        <mxCell id="a3N-TRlWXzalUJBeH1p4-17" value="" style="line;strokeWidth=1;fillColor=none;align=left;verticalAlign=middle;spacingTop=-1;spacingLeft=3;spacingRight=3;rotatable=0;labelPosition=right;points=[];portConstraint=eastwest;strokeColor=inherit;rounded=0;shadow=0;glass=0;sketch=0;" parent="a3N-TRlWXzalUJBeH1p4-15" vertex="1">
          <mxGeometry y="90" width="240" height="8" as="geometry" />
        </mxCell>
        <mxCell id="a3N-TRlWXzalUJBeH1p4-18" value="&#xa;giveId(self,idType)&#xa;isItUsed(self,idType,checkId)&#xa;openTxtFile(self,fileName,openMode)" style="text;strokeColor=#82b366;fillColor=#d5e8d4;align=center;verticalAlign=top;spacingLeft=4;spacingRight=4;overflow=hidden;rotatable=0;points=[[0,0.5],[1,0.5]];portConstraint=eastwest;rounded=0;shadow=0;glass=0;sketch=0;fontStyle=1" parent="a3N-TRlWXzalUJBeH1p4-15" vertex="1">
          <mxGeometry y="98" width="240" height="92" as="geometry" />
        </mxCell>
        <mxCell id="a3N-TRlWXzalUJBeH1p4-61" style="edgeStyle=orthogonalEdgeStyle;rounded=0;orthogonalLoop=1;jettySize=auto;html=1;exitX=0.5;exitY=1;exitDx=0;exitDy=0;" parent="1" source="a3N-TRlWXzalUJBeH1p4-21" target="a3N-TRlWXzalUJBeH1p4-41" edge="1">
          <mxGeometry relative="1" as="geometry" />
        </mxCell>
        <mxCell id="a3N-TRlWXzalUJBeH1p4-21" value="LibraryItem" style="swimlane;fontStyle=1;align=center;verticalAlign=top;childLayout=stackLayout;horizontal=1;startSize=26;horizontalStack=0;resizeParent=1;resizeParentMax=0;resizeLast=0;collapsible=1;marginBottom=0;rounded=0;shadow=0;glass=0;sketch=0;fillColor=#dae8fc;strokeColor=#6c8ebf;" parent="1" vertex="1">
          <mxGeometry x="254" y="330" width="160" height="180" as="geometry" />
        </mxCell>
        <mxCell id="a3N-TRlWXzalUJBeH1p4-22" value="stockQuantity&#xa;shelfQuantity" style="text;strokeColor=#d79b00;fillColor=#ffe6cc;align=center;verticalAlign=top;spacingLeft=4;spacingRight=4;overflow=hidden;rotatable=0;points=[[0,0.5],[1,0.5]];portConstraint=eastwest;rounded=0;shadow=0;glass=0;sketch=0;fontStyle=1" parent="a3N-TRlWXzalUJBeH1p4-21" vertex="1">
          <mxGeometry y="26" width="160" height="64" as="geometry" />
        </mxCell>
        <mxCell id="a3N-TRlWXzalUJBeH1p4-23" value="" style="line;strokeWidth=1;fillColor=none;align=left;verticalAlign=middle;spacingTop=-1;spacingLeft=3;spacingRight=3;rotatable=0;labelPosition=right;points=[];portConstraint=eastwest;strokeColor=inherit;rounded=0;shadow=0;glass=0;sketch=0;" parent="a3N-TRlWXzalUJBeH1p4-21" vertex="1">
          <mxGeometry y="90" width="160" height="8" as="geometry" />
        </mxCell>
        <mxCell id="a3N-TRlWXzalUJBeH1p4-24" value="&#xa;borrowItem()-abstract&#xa;returnItem()-abstract" style="text;strokeColor=#82b366;fillColor=#d5e8d4;align=center;verticalAlign=top;spacingLeft=4;spacingRight=4;overflow=hidden;rotatable=0;points=[[0,0.5],[1,0.5]];portConstraint=eastwest;rounded=0;shadow=0;glass=0;sketch=0;fontStyle=1" parent="a3N-TRlWXzalUJBeH1p4-21" vertex="1">
          <mxGeometry y="98" width="160" height="82" as="geometry" />
        </mxCell>
        <mxCell id="MsvVgZufVQ2sPDhhO5bT-1" style="edgeStyle=orthogonalEdgeStyle;rounded=0;orthogonalLoop=1;jettySize=auto;html=1;exitX=0.5;exitY=1;exitDx=0;exitDy=0;" edge="1" parent="1" source="a3N-TRlWXzalUJBeH1p4-25" target="a3N-TRlWXzalUJBeH1p4-29">
          <mxGeometry relative="1" as="geometry" />
        </mxCell>
        <mxCell id="a3N-TRlWXzalUJBeH1p4-25" value="User" style="swimlane;fontStyle=1;align=center;verticalAlign=top;childLayout=stackLayout;horizontal=1;startSize=26;horizontalStack=0;resizeParent=1;resizeParentMax=0;resizeLast=0;collapsible=1;marginBottom=0;rounded=0;shadow=0;glass=0;sketch=0;fillColor=#dae8fc;strokeColor=#6c8ebf;" parent="1" vertex="1">
          <mxGeometry x="970" y="310" width="460" height="200" as="geometry" />
        </mxCell>
        <mxCell id="a3N-TRlWXzalUJBeH1p4-26" value="Surname&#xa;dateOfBirth&#xa;Role&#xa;Spec&#xa;Password" style="text;fillColor=#ffe6cc;align=center;verticalAlign=top;spacingLeft=4;spacingRight=4;overflow=hidden;rotatable=0;points=[[0,0.5],[1,0.5]];portConstraint=eastwest;rounded=0;shadow=0;glass=0;sketch=0;fontStyle=1;strokeColor=#d79b00;fontSize=12;" parent="a3N-TRlWXzalUJBeH1p4-25" vertex="1">
          <mxGeometry y="26" width="460" height="104" as="geometry" />
        </mxCell>
        <mxCell id="a3N-TRlWXzalUJBeH1p4-27" value="" style="line;strokeWidth=1;fillColor=none;align=left;verticalAlign=middle;spacingTop=-1;spacingLeft=3;spacingRight=3;rotatable=0;labelPosition=right;points=[];portConstraint=eastwest;strokeColor=inherit;rounded=0;shadow=0;glass=0;sketch=0;" parent="a3N-TRlWXzalUJBeH1p4-25" vertex="1">
          <mxGeometry y="130" width="460" height="8" as="geometry" />
        </mxCell>
        <mxCell id="a3N-TRlWXzalUJBeH1p4-28" value="signIn(self,name,surname,dateOfBirth,role,eMail,librarianId,password)" style="text;strokeColor=#82b366;fillColor=#d5e8d4;align=center;verticalAlign=top;spacingLeft=4;spacingRight=4;overflow=hidden;rotatable=0;points=[[0,0.5],[1,0.5]];portConstraint=eastwest;rounded=0;shadow=0;glass=0;sketch=0;fontStyle=1;" parent="a3N-TRlWXzalUJBeH1p4-25" vertex="1">
          <mxGeometry y="138" width="460" height="62" as="geometry" />
        </mxCell>
        <mxCell id="a3N-TRlWXzalUJBeH1p4-29" value="Librarian" style="swimlane;fontStyle=1;align=center;verticalAlign=top;childLayout=stackLayout;horizontal=1;startSize=26;horizontalStack=0;resizeParent=1;resizeParentMax=0;resizeLast=0;collapsible=1;marginBottom=0;rounded=0;shadow=0;glass=0;sketch=0;fillColor=#dae8fc;strokeColor=#6c8ebf;" parent="1" vertex="1">
          <mxGeometry x="770" y="670" width="560" height="210" as="geometry" />
        </mxCell>
        <mxCell id="a3N-TRlWXzalUJBeH1p4-30" value="" style="text;strokeColor=#d79b00;fillColor=#ffe6cc;align=center;verticalAlign=top;spacingLeft=4;spacingRight=4;overflow=hidden;rotatable=0;points=[[0,0.5],[1,0.5]];portConstraint=eastwest;rounded=0;shadow=0;glass=0;sketch=0;fontStyle=1" parent="a3N-TRlWXzalUJBeH1p4-29" vertex="1">
          <mxGeometry y="26" width="560" height="64" as="geometry" />
        </mxCell>
        <mxCell id="a3N-TRlWXzalUJBeH1p4-31" value="" style="line;strokeWidth=1;fillColor=none;align=left;verticalAlign=middle;spacingTop=-1;spacingLeft=3;spacingRight=3;rotatable=0;labelPosition=right;points=[];portConstraint=eastwest;strokeColor=inherit;rounded=0;shadow=0;glass=0;sketch=0;" parent="a3N-TRlWXzalUJBeH1p4-29" vertex="1">
          <mxGeometry y="90" width="560" height="8" as="geometry" />
        </mxCell>
        <mxCell id="a3N-TRlWXzalUJBeH1p4-32" value="listItems(self,itemType)&#xa;addLilbraryItems(self,type,name,person,releaseDate,pagNumOrDur,stockNum,shelfNum)&#xa;checkFormat(self,chkName,chkPerson,chkReleaseDate,chkPageNum,chkStckNum,chkShNum)&#xa;isThereSameItem(self,type,name,person)&#xa;changeQuantity(self,type,name,person,rlsDate,pageNum,stckNum,shNum)&#xa;removLibraryItem(self,type,name)" style="text;strokeColor=#82b366;fillColor=#d5e8d4;align=center;verticalAlign=top;spacingLeft=4;spacingRight=4;overflow=hidden;rotatable=0;points=[[0,0.5],[1,0.5]];portConstraint=eastwest;rounded=0;shadow=0;glass=0;sketch=0;fontStyle=1" parent="a3N-TRlWXzalUJBeH1p4-29" vertex="1">
          <mxGeometry y="98" width="560" height="112" as="geometry" />
        </mxCell>
        <mxCell id="a3N-TRlWXzalUJBeH1p4-33" value="Member" style="swimlane;fontStyle=1;align=center;verticalAlign=top;childLayout=stackLayout;horizontal=1;startSize=26;horizontalStack=0;resizeParent=1;resizeParentMax=0;resizeLast=0;collapsible=1;marginBottom=0;rounded=0;shadow=0;glass=0;sketch=0;fillColor=#dae8fc;strokeColor=#6c8ebf;" parent="1" vertex="1">
          <mxGeometry x="1490" y="670" width="160" height="160" as="geometry" />
        </mxCell>
        <mxCell id="a3N-TRlWXzalUJBeH1p4-34" value="" style="text;strokeColor=#d79b00;fillColor=#ffe6cc;align=center;verticalAlign=top;spacingLeft=4;spacingRight=4;overflow=hidden;rotatable=0;points=[[0,0.5],[1,0.5]];portConstraint=eastwest;rounded=0;shadow=0;glass=0;sketch=0;fontStyle=1" parent="a3N-TRlWXzalUJBeH1p4-33" vertex="1">
          <mxGeometry y="26" width="160" height="64" as="geometry" />
        </mxCell>
        <mxCell id="a3N-TRlWXzalUJBeH1p4-35" value="" style="line;strokeWidth=1;fillColor=none;align=left;verticalAlign=middle;spacingTop=-1;spacingLeft=3;spacingRight=3;rotatable=0;labelPosition=right;points=[];portConstraint=eastwest;strokeColor=inherit;rounded=0;shadow=0;glass=0;sketch=0;" parent="a3N-TRlWXzalUJBeH1p4-33" vertex="1">
          <mxGeometry y="90" width="160" height="8" as="geometry" />
        </mxCell>
        <mxCell id="a3N-TRlWXzalUJBeH1p4-36" value="" style="text;strokeColor=#82b366;fillColor=#d5e8d4;align=center;verticalAlign=top;spacingLeft=4;spacingRight=4;overflow=hidden;rotatable=0;points=[[0,0.5],[1,0.5]];portConstraint=eastwest;rounded=0;shadow=0;glass=0;sketch=0;fontStyle=1" parent="a3N-TRlWXzalUJBeH1p4-33" vertex="1">
          <mxGeometry y="98" width="160" height="62" as="geometry" />
        </mxCell>
        <mxCell id="a3N-TRlWXzalUJBeH1p4-37" value="Book" style="swimlane;fontStyle=1;align=center;verticalAlign=top;childLayout=stackLayout;horizontal=1;startSize=26;horizontalStack=0;resizeParent=1;resizeParentMax=0;resizeLast=0;collapsible=1;marginBottom=0;rounded=0;shadow=0;glass=0;sketch=0;fillColor=#dae8fc;strokeColor=#6c8ebf;" parent="1" vertex="1">
          <mxGeometry y="600" width="160" height="160" as="geometry" />
        </mxCell>
        <mxCell id="a3N-TRlWXzalUJBeH1p4-38" value="" style="text;strokeColor=#d79b00;fillColor=#ffe6cc;align=center;verticalAlign=top;spacingLeft=4;spacingRight=4;overflow=hidden;rotatable=0;points=[[0,0.5],[1,0.5]];portConstraint=eastwest;rounded=0;shadow=0;glass=0;sketch=0;fontStyle=1" parent="a3N-TRlWXzalUJBeH1p4-37" vertex="1">
          <mxGeometry y="26" width="160" height="64" as="geometry" />
        </mxCell>
        <mxCell id="a3N-TRlWXzalUJBeH1p4-39" value="" style="line;strokeWidth=1;fillColor=none;align=left;verticalAlign=middle;spacingTop=-1;spacingLeft=3;spacingRight=3;rotatable=0;labelPosition=right;points=[];portConstraint=eastwest;strokeColor=inherit;rounded=0;shadow=0;glass=0;sketch=0;" parent="a3N-TRlWXzalUJBeH1p4-37" vertex="1">
          <mxGeometry y="90" width="160" height="8" as="geometry" />
        </mxCell>
        <mxCell id="a3N-TRlWXzalUJBeH1p4-40" value="" style="text;strokeColor=#82b366;fillColor=#d5e8d4;align=center;verticalAlign=top;spacingLeft=4;spacingRight=4;overflow=hidden;rotatable=0;points=[[0,0.5],[1,0.5]];portConstraint=eastwest;rounded=0;shadow=0;glass=0;sketch=0;fontStyle=1" parent="a3N-TRlWXzalUJBeH1p4-37" vertex="1">
          <mxGeometry y="98" width="160" height="62" as="geometry" />
        </mxCell>
        <mxCell id="a3N-TRlWXzalUJBeH1p4-41" value="Dvd" style="swimlane;fontStyle=1;align=center;verticalAlign=top;childLayout=stackLayout;horizontal=1;startSize=26;horizontalStack=0;resizeParent=1;resizeParentMax=0;resizeLast=0;collapsible=1;marginBottom=0;rounded=0;shadow=0;glass=0;sketch=0;fillColor=#dae8fc;strokeColor=#6c8ebf;" parent="1" vertex="1">
          <mxGeometry x="254" y="600" width="160" height="160" as="geometry" />
        </mxCell>
        <mxCell id="a3N-TRlWXzalUJBeH1p4-42" value="" style="text;strokeColor=#d79b00;fillColor=#ffe6cc;align=center;verticalAlign=top;spacingLeft=4;spacingRight=4;overflow=hidden;rotatable=0;points=[[0,0.5],[1,0.5]];portConstraint=eastwest;rounded=0;shadow=0;glass=0;sketch=0;fontStyle=1" parent="a3N-TRlWXzalUJBeH1p4-41" vertex="1">
          <mxGeometry y="26" width="160" height="64" as="geometry" />
        </mxCell>
        <mxCell id="a3N-TRlWXzalUJBeH1p4-43" value="" style="line;strokeWidth=1;fillColor=none;align=left;verticalAlign=middle;spacingTop=-1;spacingLeft=3;spacingRight=3;rotatable=0;labelPosition=right;points=[];portConstraint=eastwest;strokeColor=inherit;rounded=0;shadow=0;glass=0;sketch=0;" parent="a3N-TRlWXzalUJBeH1p4-41" vertex="1">
          <mxGeometry y="90" width="160" height="8" as="geometry" />
        </mxCell>
        <mxCell id="a3N-TRlWXzalUJBeH1p4-44" value="" style="text;strokeColor=#82b366;fillColor=#d5e8d4;align=center;verticalAlign=top;spacingLeft=4;spacingRight=4;overflow=hidden;rotatable=0;points=[[0,0.5],[1,0.5]];portConstraint=eastwest;rounded=0;shadow=0;glass=0;sketch=0;fontStyle=1" parent="a3N-TRlWXzalUJBeH1p4-41" vertex="1">
          <mxGeometry y="98" width="160" height="62" as="geometry" />
        </mxCell>
        <mxCell id="a3N-TRlWXzalUJBeH1p4-45" value="Magazine" style="swimlane;fontStyle=1;align=center;verticalAlign=top;childLayout=stackLayout;horizontal=1;startSize=26;horizontalStack=0;resizeParent=1;resizeParentMax=0;resizeLast=0;collapsible=1;marginBottom=0;rounded=0;shadow=0;glass=0;sketch=0;fillColor=#dae8fc;strokeColor=#6c8ebf;" parent="1" vertex="1">
          <mxGeometry x="494" y="600" width="160" height="160" as="geometry" />
        </mxCell>
        <mxCell id="a3N-TRlWXzalUJBeH1p4-46" value="" style="text;strokeColor=#d79b00;fillColor=#ffe6cc;align=center;verticalAlign=top;spacingLeft=4;spacingRight=4;overflow=hidden;rotatable=0;points=[[0,0.5],[1,0.5]];portConstraint=eastwest;rounded=0;shadow=0;glass=0;sketch=0;fontStyle=1" parent="a3N-TRlWXzalUJBeH1p4-45" vertex="1">
          <mxGeometry y="26" width="160" height="64" as="geometry" />
        </mxCell>
        <mxCell id="a3N-TRlWXzalUJBeH1p4-47" value="" style="line;strokeWidth=1;fillColor=none;align=left;verticalAlign=middle;spacingTop=-1;spacingLeft=3;spacingRight=3;rotatable=0;labelPosition=right;points=[];portConstraint=eastwest;strokeColor=inherit;rounded=0;shadow=0;glass=0;sketch=0;" parent="a3N-TRlWXzalUJBeH1p4-45" vertex="1">
          <mxGeometry y="90" width="160" height="8" as="geometry" />
        </mxCell>
        <mxCell id="a3N-TRlWXzalUJBeH1p4-48" value="" style="text;strokeColor=#82b366;fillColor=#d5e8d4;align=center;verticalAlign=top;spacingLeft=4;spacingRight=4;overflow=hidden;rotatable=0;points=[[0,0.5],[1,0.5]];portConstraint=eastwest;rounded=0;shadow=0;glass=0;sketch=0;fontStyle=1" parent="a3N-TRlWXzalUJBeH1p4-45" vertex="1">
          <mxGeometry y="98" width="160" height="62" as="geometry" />
        </mxCell>
        <mxCell id="a3N-TRlWXzalUJBeH1p4-54" style="edgeStyle=orthogonalEdgeStyle;rounded=0;orthogonalLoop=1;jettySize=auto;html=1;entryX=0.438;entryY=0.002;entryDx=0;entryDy=0;entryPerimeter=0;" parent="1" source="a3N-TRlWXzalUJBeH1p4-18" target="a3N-TRlWXzalUJBeH1p4-25" edge="1">
          <mxGeometry relative="1" as="geometry">
            <Array as="points">
              <mxPoint x="680" y="260" />
              <mxPoint x="1172" y="260" />
            </Array>
          </mxGeometry>
        </mxCell>
        <mxCell id="a3N-TRlWXzalUJBeH1p4-55" style="edgeStyle=orthogonalEdgeStyle;rounded=0;orthogonalLoop=1;jettySize=auto;html=1;entryX=0.5;entryY=0;entryDx=0;entryDy=0;" parent="1" source="a3N-TRlWXzalUJBeH1p4-18" target="a3N-TRlWXzalUJBeH1p4-21" edge="1">
          <mxGeometry relative="1" as="geometry">
            <Array as="points">
              <mxPoint x="680" y="260" />
              <mxPoint x="340" y="260" />
            </Array>
          </mxGeometry>
        </mxCell>
        <mxCell id="a3N-TRlWXzalUJBeH1p4-62" style="edgeStyle=orthogonalEdgeStyle;rounded=0;orthogonalLoop=1;jettySize=auto;html=1;" parent="1" source="a3N-TRlWXzalUJBeH1p4-24" target="a3N-TRlWXzalUJBeH1p4-37" edge="1">
          <mxGeometry relative="1" as="geometry">
            <Array as="points">
              <mxPoint x="334" y="540" />
              <mxPoint x="80" y="540" />
            </Array>
          </mxGeometry>
        </mxCell>
        <mxCell id="a3N-TRlWXzalUJBeH1p4-63" style="edgeStyle=orthogonalEdgeStyle;rounded=0;orthogonalLoop=1;jettySize=auto;html=1;" parent="1" source="a3N-TRlWXzalUJBeH1p4-24" target="a3N-TRlWXzalUJBeH1p4-45" edge="1">
          <mxGeometry relative="1" as="geometry">
            <Array as="points">
              <mxPoint x="334" y="540" />
              <mxPoint x="574" y="540" />
            </Array>
          </mxGeometry>
        </mxCell>
        <mxCell id="MsvVgZufVQ2sPDhhO5bT-7" style="edgeStyle=orthogonalEdgeStyle;rounded=0;orthogonalLoop=1;jettySize=auto;html=1;" edge="1" parent="1" source="a3N-TRlWXzalUJBeH1p4-28" target="a3N-TRlWXzalUJBeH1p4-33">
          <mxGeometry relative="1" as="geometry">
            <Array as="points">
              <mxPoint x="1200" y="590" />
              <mxPoint x="1580" y="590" />
            </Array>
          </mxGeometry>
        </mxCell>
      </root>
    </mxGraphModel>
  </diagram>
</mxfile>
